<svg width="146" height="154" viewBox="0 0 146 154" fill="none" xmlns="http://www.w3.org/2000/svg">
<g clip-path="url(#clip0_691_3234)">
<path d="M132.708 63.8155L129.33 55.3701L123.34 40.3936C118.197 27.5391 105.932 19.2349 92.0853 19.2349H53.9154C40.072 19.2349 27.8035 27.5391 22.6611 40.3936L16.6711 55.3701L13.2929 63.8155C6.04365 66.5716 0.868164 73.5324 0.868164 81.7494V96.1758C0.868164 101.021 2.71956 105.394 5.67698 108.778V125.029C5.67698 130.339 9.98387 134.646 15.2946 134.646H24.9122C30.223 134.646 34.5298 130.339 34.5298 125.029V115.411H111.471V125.029C111.471 130.339 115.778 134.646 121.088 134.646H130.706C136.017 134.646 140.324 130.339 140.324 125.029V108.778C143.281 105.397 145.133 101.024 145.133 96.1758V81.7494C145.133 73.5324 139.957 66.5716 132.708 63.8155ZM40.5198 47.5377C42.7108 42.0617 48.0156 38.4701 53.9154 38.4701H92.0853C97.9851 38.4701 103.29 42.0617 105.481 47.5377L111.471 62.5142H34.5298L40.5198 47.5377ZM24.9122 96.1157C19.1416 96.1157 15.2946 92.2807 15.2946 86.5282C15.2946 80.7756 19.1416 76.9406 24.9122 76.9406C30.6828 76.9406 39.3387 85.5694 39.3387 91.322C39.3387 97.0745 30.6828 96.1157 24.9122 96.1157ZM121.088 96.1157C115.318 96.1157 106.662 97.0745 106.662 91.322C106.662 85.5694 115.318 76.9406 121.088 76.9406C126.859 76.9406 130.706 80.7756 130.706 86.5282C130.706 92.2807 126.859 96.1157 121.088 96.1157Z" fill="#0E4D4F"/>
</g>
<defs>
<clipPath id="clip0_691_3234">
<rect width="144.264" height="153.882" fill="white" transform="translate(0.868164)"/>
</clipPath>
</defs>
</svg>
