<svg width="131" height="130" viewBox="0 0 131 130" fill="none" xmlns="http://www.w3.org/2000/svg">
<g clip-path="url(#clip0_691_3238)">
<path d="M106.024 81.0474H81.7095C77.2519 81.0474 73.6048 77.4003 73.6048 72.9426C73.6048 68.485 77.2519 64.8379 81.7095 64.8379H106.024C106.024 64.8379 130.338 37.7377 130.338 24.3142C130.338 10.8907 119.447 0 106.024 0C92.6002 0 81.7095 10.8907 81.7095 24.3142C81.7095 30.7727 87.3322 40.3717 93.1828 48.6284H81.7095C68.3113 48.6284 57.3953 59.5445 57.3953 72.9426C57.3953 86.3408 68.3113 97.2569 81.7095 97.2569H106.024C110.481 97.2569 114.128 100.904 114.128 105.362C114.128 109.819 110.481 113.466 106.024 113.466H47.6443C43.5919 119.748 39.0836 125.547 35.6644 129.676H106.024C119.422 129.676 130.338 118.76 130.338 105.362C130.338 91.9634 119.422 81.0474 106.024 81.0474ZM106.024 16.2095C110.507 16.2095 114.128 19.8313 114.128 24.3142C114.128 28.7971 110.507 32.419 106.024 32.419C101.541 32.419 97.919 28.7971 97.919 24.3142C97.919 19.8313 101.541 16.2095 106.024 16.2095ZM24.9763 64.8379C11.5529 64.8379 0.662109 75.7286 0.662109 89.1521C0.662109 102.576 24.9763 129.676 24.9763 129.676C24.9763 129.676 49.2905 102.576 49.2905 89.1521C49.2905 75.7286 38.3998 64.8379 24.9763 64.8379ZM24.9763 97.2569C20.4934 97.2569 16.8716 93.6351 16.8716 89.1521C16.8716 84.6692 20.4934 81.0474 24.9763 81.0474C29.4593 81.0474 33.0811 84.6692 33.0811 89.1521C33.0811 93.6351 29.4593 97.2569 24.9763 97.2569Z" fill="#0E4D4F"/>
</g>
<defs>
<clipPath id="clip0_691_3238">
<rect width="129.676" height="129.676" fill="white" transform="translate(0.662109)"/>
</clipPath>
</defs>
</svg>
