<svg width="500" height="500" viewBox="0 0 500 500" fill="none" xmlns="http://www.w3.org/2000/svg">
<path d="M99.4005 299.2C85.7205 312.59 83.4005 333.31 86.3005 351.46C86.3805 351.87 87.0205 351.76 87.0205 351.37C87.0205 347.24 86.8905 343.15 86.9005 339.07C86.9805 338.88 87.0405 338.7 87.1205 338.52C90.6905 335.92 94.0005 333 96.0005 329C98.2905 324.5 99.1905 319.44 100.931 314.74C101.101 314.29 100.621 314.42 100.301 314.66C91.9805 320.79 89.3005 327.4 86.9405 336.22C86.9876 331.604 87.4731 327.004 88.3905 322.48C90.1905 314.11 93.7405 305.8 99.7605 299.59C99.8122 299.542 99.8429 299.476 99.8457 299.405C99.8485 299.335 99.8232 299.266 99.7755 299.215C99.7278 299.163 99.6614 299.132 99.5911 299.13C99.5208 299.127 99.4522 299.152 99.4005 299.2Z" fill="#A6A6A6"/>
<path d="M102 300.76C104.35 300.84 105.83 304.6 107.66 305.7C107.853 305.856 108.076 305.97 108.316 306.035C108.556 306.099 108.806 306.113 109.051 306.074C109.297 306.035 109.531 305.946 109.739 305.81C109.947 305.675 110.125 305.498 110.26 305.29C112.08 302.75 109.58 299.62 107.26 297.87C108.94 298.56 110.33 299.77 112.14 300.12C112.371 300.193 112.616 300.217 112.857 300.189C113.098 300.16 113.33 300.081 113.538 299.956C113.746 299.832 113.925 299.664 114.064 299.464C114.202 299.265 114.296 299.038 114.34 298.8C115.13 295.34 110.8 293.8 107.82 293.73C109.26 292.73 113.4 290 111.2 288.66C109 287.32 104.12 291.21 102.54 292.49C100.21 294.38 97.44 297.2 97.33 300.15C97.15 303.6 100.16 301.48 102 300.76Z" fill="#DBDBDB"/>
<path d="M101.29 301.34C104.29 299.97 110.08 301.94 110.57 300.8C111.57 298.48 106.95 296.89 104.45 296.58C106.75 295.96 111.15 294.97 111.02 292.76C110.85 290.05 104.27 292.38 100.93 294.93C96.7398 298.15 96.7598 301.26 97.4598 301.88C98.4098 302.73 100.79 301.56 101.29 301.34Z" fill="#EBEBEB"/>
<path d="M68.24 297.87C82.42 310.73 85.51 331.35 83.31 349.6C83.31 350.01 82.61 349.93 82.6 349.54C82.44 345.41 82.41 341.31 82.24 337.24L82.01 336.69C78.35 334.24 74.95 331.43 72.77 327.49C70.31 323.09 69.22 318.06 67.3 313.43C67.12 312.99 67.6 313.1 67.92 313.32C76.47 319.14 79.38 325.64 82.1 334.37C81.8639 329.757 81.1943 325.177 80.1 320.69C77.98 312.39 74.1 304.23 67.86 298.25C67.66 298 68 297.64 68.24 297.87Z" fill="#A6A6A6"/>
<path d="M65.7303 299.53C63.3803 299.7 62.0503 303.53 60.2603 304.68C60.0745 304.844 59.8559 304.968 59.6191 305.042C59.3822 305.116 59.1323 305.139 58.8858 305.11C58.6393 305.081 58.4018 305 58.1889 304.872C57.9759 304.744 57.7924 304.573 57.6503 304.37C55.7403 301.9 58.1103 298.68 60.3903 296.84C58.7403 297.6 57.3903 298.84 55.6003 299.27C55.3696 299.354 55.1234 299.387 54.8788 299.367C54.6341 299.347 54.3966 299.274 54.1828 299.153C53.969 299.032 53.7839 298.867 53.6402 298.668C53.4965 298.469 53.3976 298.241 53.3503 298C52.4203 294.57 56.7003 292.87 59.6703 292.68C58.1903 291.74 53.9503 289.17 56.1003 287.75C58.2503 286.33 63.2703 290.03 64.9003 291.25C67.3003 293.05 70.1803 295.76 70.3903 298.71C70.6603 302.19 67.5703 300.18 65.7303 299.53Z" fill="#DBDBDB"/>
<path d="M66.4299 300.08C63.3799 298.83 57.6699 301.02 57.1399 299.9C56.0599 297.62 60.6099 295.9 63.1399 295.45C60.8199 294.92 56.3899 294.09 56.4399 291.88C56.4999 289.17 63.1699 291.24 66.5999 293.67C70.9099 296.73 70.9999 299.83 70.3299 300.48C69.3699 301.37 66.9399 300.29 66.4299 300.08Z" fill="#EBEBEB"/>
<path d="M82.7405 331.84C83.7023 338.72 85.1764 345.519 87.1505 352.18C87.1792 352.31 87.258 352.424 87.3698 352.497C87.4816 352.57 87.6176 352.596 87.7485 352.57C87.8795 352.544 87.9949 352.467 88.0701 352.357C88.1452 352.247 88.1741 352.111 88.1505 351.98C87.2205 345.72 85.5205 339.56 84.5905 333.3C83.5685 326.958 83.2032 320.527 83.5005 314.11C84.0905 303.55 86.9605 292.31 93.8505 284.05C94.0105 283.85 93.6805 283.58 93.5305 283.76C79.7305 299.85 81.9305 319.57 81.9405 321.34C79.9405 314.68 77.9405 307.04 70.5805 300.26C70.2605 299.97 70.0105 300.11 70.0705 300.61C71.3805 313 74.8105 319.41 82.0005 326C82.1805 328 82.4305 329.92 82.7405 331.84Z" fill="#A6A6A6"/>
<path d="M94.0006 285.9C96.4806 284.8 99.9106 287.96 102.361 288.17C102.639 288.242 102.93 288.253 103.214 288.202C103.497 288.151 103.766 288.04 104.002 287.876C104.239 287.712 104.437 287.498 104.583 287.251C104.73 287.003 104.821 286.726 104.851 286.44C105.461 282.89 101.301 280.9 97.9806 280.27C100.071 280.14 102.121 280.69 104.171 280.14C104.446 280.096 104.709 279.995 104.943 279.843C105.177 279.691 105.377 279.492 105.53 279.259C105.682 279.025 105.784 278.762 105.829 278.487C105.874 278.211 105.861 277.93 105.791 277.66C104.881 273.66 99.6006 274.26 96.4806 275.66C97.4806 273.89 100.391 268.98 97.4806 268.66C94.5706 268.34 91.4206 274.87 90.4306 277C88.9606 280.13 87.5006 284.46 88.8806 287.57C90.4006 291.28 92.4506 287.56 94.0006 285.9Z" fill="#DBDBDB"/>
<path d="M93.55 286.84C95.99 283.91 102.98 283.04 102.91 281.61C102.78 278.71 97.19 279.38 94.45 280.32C96.51 278.52 100.58 275.27 99.33 273.04C97.79 270.32 92.13 276.04 89.96 280.38C87.23 285.83 88.82 289.04 89.85 289.33C91.27 289.74 93.15 287.33 93.55 286.84Z" fill="#EBEBEB"/>
<path d="M73.6601 335.56L67.5801 382.06H104.58C103.82 377.94 96.9301 335.51 96.9301 335.51L73.6601 335.56Z" fill="#DBDBDB"/>
<path d="M434.8 199.63H461.28V188.44H434.8V199.63Z" fill="#EBEBEB"/>
<path d="M449.57 185.52H476.05V174.33H449.57V185.52Z" fill="#EBEBEB"/>
<path d="M420.02 185.52H446.5V174.33H420.02V185.52Z" fill="#EBEBEB"/>
<path d="M38.7202 343.95H65.2002V332.76H38.7202V343.95Z" fill="#EBEBEB"/>
<path d="M23.9507 329.84H50.4307V318.65H23.9507V329.84Z" fill="#EBEBEB"/>
<path d="M449.57 343.94H476.05V332.75H449.57V343.94Z" fill="#EBEBEB"/>
<path d="M138.911 95.2598H112.431V106.45H138.911V95.2598Z" fill="#EBEBEB"/>
<path d="M124.13 109.37H97.6504V120.56H124.13V109.37Z" fill="#EBEBEB"/>
<path d="M57.9502 382.02L105.96 381.78L153.97 381.69L250 381.52L346.02 381.69L394.04 381.78L442.05 382.02L394.04 382.27L346.02 382.35L250 382.52L153.97 382.35L105.96 382.26L57.9502 382.02Z" fill="#263238"/>
<path d="M280.27 252.75C280.235 252.979 280.281 253.212 280.4 253.411C280.518 253.61 280.702 253.761 280.92 253.84C281.97 254 283.25 254.17 284.67 254.37C288.9 245.19 293.22 237.96 292 240.82C290.136 245.313 288.914 250.046 288.37 254.88C290.02 255.1 293.87 255.57 295.79 255.8C300.21 239.42 305.08 227.38 304.51 231.16C302.19 246.41 302.6 251.39 303.13 256.72C321.06 258.9 344.61 261.48 361.68 262.95C364.47 253.95 367.08 244.11 367.32 244.83C369.19 250.18 369.15 257.74 368.68 263.54C374.12 263.97 378.48 264.2 381.15 264.2C381.15 264.2 383.15 256.58 383.51 254.06C384.581 247.612 384.52 241.027 383.33 234.6C382.1 228.04 379.48 222.14 377.03 216.11C377.023 216.073 377.013 216.036 377 216C375.375 212.049 374.207 207.926 373.52 203.71C373.513 203.677 373.513 203.643 373.52 203.61C373.063 200.535 372.865 197.428 372.93 194.32C373.15 182.94 368.05 172.71 358.36 169.01C341.81 152.1 319.08 159.86 312.66 174.16C310.15 180.57 307.66 188.94 305.49 195.39C305.496 195.401 305.499 195.413 305.499 195.425C305.499 195.437 305.496 195.449 305.49 195.46C304.671 197.99 303.699 200.468 302.58 202.88C296.63 214.4 285.17 220.34 280.27 252.75Z" fill="#263238"/>
<path d="M362.35 172.37C368.56 176.48 372.1 182.09 372.35 190.43C372.51 195.29 372.35 200.02 373.72 204.69C375.09 209.51 377.57 213.57 380.14 217.62C384.21 224.06 386.89 230.38 386.88 238.54C386.87 246.7 385.64 256.54 382.35 264.03C382.35 264.08 382.27 264.03 382.29 264.03C385.09 256.38 386.11 245.6 385.54 237.34C384.91 228.26 380.67 222.28 376.41 215.11C372.977 209.418 371.079 202.934 370.9 196.29C370.78 192.17 371.22 187.92 370.02 183.96C368.6 179.24 365.2 176.05 361.8 173.2C361.35 172.79 361.88 172.06 362.35 172.37Z" fill="#263238"/>
<path d="M290.36 214.81C295.54 208.72 300.83 203.59 304.25 195.81C307.36 188.72 309.45 181.15 312.6 174.08C312.6 173.96 312.81 174.02 312.76 174.15C307.76 186.75 305.84 199.69 297.1 209.96C292.34 215.54 287.63 220.69 284.21 227.54C280.713 234.764 278.526 242.552 277.75 250.54C277.75 250.82 277.38 250.78 277.38 250.54C277.375 237.475 281.97 224.825 290.36 214.81Z" fill="#263238"/>
<path d="M240 370C240 370 288.27 383 296.25 381.6C304.23 380.2 331.17 343.94 337.15 330.79C343.13 317.64 353.06 252.22 351.15 245.02C349.24 237.82 339.25 237.72 330.82 256.28C322.39 274.84 302.46 315.64 298.91 319C295.36 322.36 236.11 366.52 240 370Z" fill="#DD6A57"/>
<path d="M292.059 377.3C284.659 373.43 275.649 364.04 269.509 363.06C268.007 362.766 266.45 362.963 265.069 363.622C263.688 364.282 262.555 365.368 261.839 366.72C261.839 366.72 259.019 360.45 253.299 360.48C250.369 360.48 247.809 365.2 247.809 365.2C247.809 365.2 245.319 360.27 240.249 360.61C236.199 360.88 234.249 365.56 234.249 365.56C234.249 365.56 229.669 361.94 225.629 363.56C217.449 366.79 216.089 401.56 228.689 407.44C234.559 410.18 234.429 401.67 234.429 401.67C234.429 401.67 237.569 413.87 244.729 414.33C251.889 414.79 251.059 403.75 251.059 403.75C251.059 403.75 254.209 415.54 261.679 415.27C269.459 415 266.739 404.09 266.739 404.09C266.739 404.09 271.679 412.03 277.349 410.51C286.719 408.01 276.649 389.19 278.769 381.62H290.539L292.059 377.3Z" fill="#DD6A57"/>
<path d="M281.38 369.9C288.71 372.96 297.07 361.39 304.61 364.08C314.39 367.57 305.35 379.64 290.53 381.6H278.76L281.38 369.9Z" fill="#DD6A57"/>
<path d="M233.82 366.25C233.82 366.226 233.81 366.203 233.793 366.187C233.777 366.17 233.754 366.16 233.73 366.16C233.706 366.16 233.683 366.17 233.666 366.187C233.649 366.203 233.64 366.226 233.64 366.25C230.41 377.58 230.32 391.02 234.37 402.16C234.5 402.52 235.16 402.47 235.09 402.04C233.11 389.72 232.33 378.66 233.82 366.25Z" fill="#263238"/>
<path d="M247.739 365C247.739 364.86 247.529 364.83 247.489 365C244.219 376.7 244.489 391.83 250.719 404.13C250.929 404.55 251.549 404.71 251.339 404.21C247.849 395.73 246.339 376.19 247.739 365Z" fill="#263238"/>
<path d="M267.459 404.82C261.989 392.82 260.919 380.25 261.679 367.19C261.679 367.02 261.449 367.02 261.399 367.19C259.289 373.48 259.679 381.85 260.529 388.34C261.194 394.363 263.425 400.107 266.999 405C267.179 405.21 267.579 405.08 267.459 404.82Z" fill="#263238"/>
<path d="M305.19 363.16C300.39 361.56 295.46 365.4 291.42 367.55C290.127 368.32 288.764 368.966 287.35 369.48C284.15 370.48 281.78 369.84 280.35 368.95C278.11 367.52 271.12 360.54 266.07 362.86C264.328 363.675 262.836 364.943 261.75 366.53C260.21 363.73 258.24 360.68 254.83 360.12C254.078 359.993 253.309 360.026 252.571 360.217C251.833 360.408 251.144 360.753 250.55 361.23C249.914 361.721 249.349 362.296 248.87 362.94C248.395 363.519 248.004 364.162 247.71 364.85C247.708 364.827 247.708 364.803 247.71 364.78L247.6 364.57L247.39 364.14C247.104 363.564 246.698 363.056 246.2 362.65C246.105 362.553 245.991 362.477 245.865 362.425C245.74 362.373 245.605 362.348 245.47 362.35C245.448 362.35 245.428 362.358 245.413 362.373C245.398 362.388 245.39 362.409 245.39 362.43C245.39 362.451 245.398 362.472 245.413 362.487C245.428 362.502 245.448 362.51 245.47 362.51C245.704 362.621 245.894 362.808 246.01 363.04C246.17 363.28 246.32 363.53 246.49 363.76C246.66 363.99 246.82 364.23 246.99 364.46L247.24 364.83L247.35 365.02C247.398 365.081 247.451 365.138 247.51 365.19C247.524 365.209 247.542 365.224 247.563 365.234C247.583 365.245 247.606 365.25 247.63 365.25C247.653 365.25 247.676 365.245 247.697 365.234C247.718 365.224 247.736 365.209 247.75 365.19C248.264 364.733 248.73 364.223 249.14 363.67C249.644 363.084 250.203 362.548 250.81 362.07C251.386 361.624 252.05 361.305 252.758 361.132C253.466 360.96 254.203 360.939 254.92 361.07C257.98 361.67 259.92 364.39 261.55 366.82C261.55 366.82 261.55 366.82 261.6 366.82C261.55 366.9 261.66 366.97 261.72 366.91C263.4 365.44 265 363.79 267.32 363.45C269.82 363.08 272.19 364.28 274.26 365.54C275.296 366.15 276.298 366.818 277.26 367.54C278.11 368.2 278.92 368.94 279.83 369.54C283.72 371.99 287.98 370.09 289.04 369.64C291.13 368.698 293.158 367.623 295.11 366.42C297.072 365.104 299.285 364.209 301.61 363.79C302.677 363.633 303.767 363.748 304.778 364.126C305.788 364.504 306.687 365.131 307.39 365.95C308.12 366.89 309.05 368.65 307.14 372.66C307.14 372.66 307.14 372.74 307.2 372.71C308.2 371.67 311.38 365.23 305.19 363.16Z" fill="#263238"/>
<path d="M347.36 305.78L301.81 298.5C301.81 298.5 323.57 255.41 336.64 242.91C349.54 230.57 355.82 243.21 353.92 262.27C351.82 283.4 347.36 305.78 347.36 305.78Z" fill="#37474F"/>
<path d="M345.879 297.3C344.599 297 343.289 296.81 342.009 296.52C340.729 296.23 339.499 296.05 338.239 295.86C335.669 295.46 333.089 295.1 330.519 294.75C325.439 294.05 320.359 293.28 315.259 292.75C312.359 292.43 309.479 291.99 306.569 291.75C306.479 291.75 306.469 291.89 306.569 291.91C311.619 293.09 316.759 293.91 321.879 294.8C326.999 295.69 332.039 296.41 337.139 296.96C338.569 297.12 340.009 297.3 341.439 297.37C342.869 297.44 344.389 297.58 345.859 297.6C345.899 297.603 345.938 297.589 345.968 297.563C345.998 297.537 346.017 297.5 346.019 297.46C346.022 297.42 346.009 297.381 345.982 297.351C345.956 297.321 345.919 297.303 345.879 297.3Z" fill="#263238"/>
<path d="M322 382H442.63C442.63 382 392.49 257.56 367 239.38C359.35 233.92 347.16 233.31 338.94 244.27C332.2 253.27 313.49 289.02 312.64 301.88C311.79 314.74 321.88 327.45 321.88 327.45L322 382Z" fill="#455A64"/>
<path d="M361.939 297.68C362.249 297.6 362.549 297.56 362.849 297.5C363.114 297.44 363.389 297.44 363.653 297.501C363.917 297.561 364.165 297.68 364.377 297.849C364.589 298.018 364.761 298.233 364.879 298.477C364.997 298.721 365.059 298.989 365.059 299.26C365.052 299.501 365.107 299.74 365.219 299.954C365.331 300.168 365.497 300.349 365.699 300.48C365.926 300.622 366.183 300.711 366.449 300.74C366.756 300.784 367.059 300.845 367.359 300.92C367.059 301 366.759 301.04 366.449 301.1C366.114 301.166 365.767 301.135 365.449 301.01C365.111 300.866 364.823 300.624 364.622 300.316C364.421 300.008 364.316 299.648 364.319 299.28C364.314 299.039 364.248 298.804 364.127 298.596C364.006 298.388 363.835 298.214 363.629 298.09C363.392 297.96 363.129 297.882 362.859 297.86C362.549 297.8 362.249 297.76 361.939 297.68Z" fill="white"/>
<path d="M315.8 297.68C316.1 297.6 316.4 297.56 316.7 297.5C316.964 297.44 317.239 297.44 317.503 297.501C317.768 297.561 318.015 297.68 318.227 297.849C318.44 298.018 318.611 298.233 318.729 298.477C318.847 298.721 318.909 298.989 318.91 299.26C318.904 299.502 318.961 299.741 319.075 299.955C319.189 300.169 319.356 300.349 319.56 300.48C319.785 300.626 320.043 300.715 320.31 300.74C320.61 300.8 320.91 300.83 321.21 300.92C320.91 301 320.61 301.04 320.31 301.1C319.975 301.165 319.628 301.134 319.31 301.01C318.974 300.862 318.688 300.62 318.487 300.313C318.287 300.006 318.18 299.647 318.18 299.28C318.174 299.039 318.108 298.804 317.987 298.596C317.867 298.388 317.696 298.214 317.49 298.09C317.253 297.959 316.99 297.88 316.72 297.86C316.4 297.8 316.1 297.76 315.8 297.68Z" fill="white"/>
<path d="M378.699 357.62C378.999 357.54 379.309 357.5 379.609 357.44C379.874 357.384 380.147 357.387 380.41 357.449C380.674 357.512 380.919 357.632 381.13 357.802C381.341 357.971 381.511 358.186 381.629 358.429C381.746 358.673 381.808 358.94 381.809 359.21C381.807 359.452 381.865 359.69 381.978 359.903C382.092 360.116 382.257 360.297 382.459 360.43C382.687 360.569 382.943 360.655 383.209 360.68C383.509 360.74 383.819 360.78 384.119 360.86C383.819 360.95 383.509 360.99 383.209 361.05C382.873 361.113 382.526 361.078 382.209 360.95C381.871 360.805 381.582 360.564 381.379 360.256C381.177 359.949 381.069 359.588 381.069 359.22C381.068 358.98 381.003 358.745 380.882 358.538C380.761 358.331 380.587 358.159 380.379 358.04C380.148 357.904 379.887 357.826 379.619 357.81C379.309 357.75 378.999 357.71 378.699 357.62Z" fill="white"/>
<path d="M399.56 300.92C399.86 300.83 400.17 300.8 400.47 300.74C400.734 300.68 401.008 300.68 401.272 300.74C401.536 300.801 401.783 300.92 401.994 301.089C402.205 301.258 402.376 301.473 402.493 301.717C402.61 301.962 402.67 302.229 402.67 302.5C402.666 302.742 402.724 302.98 402.837 303.194C402.951 303.407 403.117 303.588 403.32 303.72C403.545 303.865 403.803 303.951 404.07 303.97C404.37 304.04 404.68 304.07 404.98 304.16C404.68 304.24 404.37 304.28 404.07 304.34C403.735 304.407 403.387 304.376 403.07 304.25C402.731 304.105 402.442 303.864 402.24 303.556C402.037 303.248 401.929 302.888 401.93 302.52C401.928 302.279 401.863 302.042 401.742 301.833C401.621 301.625 401.448 301.451 401.24 301.33C401.006 301.199 400.747 301.12 400.48 301.1C400.17 301 399.86 301 399.56 300.92Z" fill="white"/>
<path d="M346.229 270.43C346.539 270.35 346.839 270.31 347.139 270.25C347.473 270.177 347.82 270.202 348.139 270.32C348.487 270.45 348.786 270.682 348.999 270.985C349.211 271.289 349.327 271.65 349.329 272.02C349.329 272.261 349.388 272.499 349.501 272.712C349.614 272.925 349.779 273.106 349.979 273.24C350.209 273.375 350.465 273.46 350.729 273.49C351.039 273.55 351.339 273.59 351.639 273.67C351.339 273.76 351.039 273.79 350.729 273.86C350.393 273.918 350.048 273.884 349.729 273.76C349.386 273.614 349.095 273.368 348.894 273.054C348.692 272.74 348.59 272.373 348.599 272C348.595 271.761 348.529 271.527 348.408 271.32C348.287 271.114 348.116 270.942 347.909 270.82C347.674 270.683 347.411 270.601 347.139 270.58C346.839 270.55 346.539 270.52 346.229 270.43Z" fill="white"/>
<path d="M379.06 269.74C379.36 269.66 379.66 269.62 379.97 269.56C380.303 269.49 380.649 269.514 380.97 269.63C381.316 269.762 381.616 269.994 381.83 270.297C382.043 270.6 382.162 270.96 382.17 271.33C382.165 271.572 382.222 271.811 382.336 272.025C382.45 272.238 382.616 272.419 382.82 272.55C383.047 272.691 383.303 272.777 383.57 272.8C383.87 272.86 384.17 272.9 384.48 272.98C384.17 273.07 383.87 273.11 383.57 273.17C383.234 273.234 382.886 273.199 382.57 273.07C382.231 272.925 381.942 272.684 381.74 272.376C381.537 272.069 381.429 271.709 381.43 271.34C381.426 271.101 381.361 270.866 381.24 270.66C381.119 270.453 380.946 270.281 380.74 270.16C380.508 270.025 380.248 269.946 379.98 269.93C379.67 269.883 379.363 269.819 379.06 269.74Z" fill="white"/>
<path d="M357.81 238.23C358.11 238.15 358.42 238.11 358.72 238.05C358.984 237.99 359.258 237.99 359.522 238.05C359.786 238.111 360.033 238.23 360.244 238.399C360.455 238.568 360.626 238.783 360.743 239.027C360.86 239.272 360.92 239.539 360.92 239.81C360.914 240.052 360.971 240.291 361.085 240.505C361.199 240.719 361.366 240.899 361.57 241.03C361.796 241.174 362.053 241.263 362.32 241.29C362.62 241.35 362.93 241.38 363.23 241.47C362.93 241.55 362.62 241.59 362.32 241.65C361.985 241.717 361.637 241.686 361.32 241.56C360.981 241.415 360.692 241.174 360.49 240.866C360.287 240.559 360.179 240.198 360.18 239.83C360.178 239.589 360.113 239.352 359.992 239.144C359.871 238.935 359.698 238.761 359.49 238.64C359.256 238.509 358.997 238.43 358.73 238.41C358.42 238.35 358.11 238.31 357.81 238.23Z" fill="white"/>
<path d="M338.18 322.76C338.48 322.68 338.78 322.64 339.08 322.58C339.413 322.507 339.76 322.531 340.08 322.65C340.427 322.778 340.728 323.007 340.942 323.309C341.156 323.611 341.274 323.97 341.28 324.34C341.274 324.582 341.331 324.822 341.445 325.035C341.559 325.249 341.726 325.43 341.93 325.56C342.155 325.706 342.412 325.795 342.68 325.82C342.98 325.88 343.28 325.92 343.58 326C343.28 326.09 342.98 326.12 342.68 326.18C342.345 326.245 341.998 326.214 341.68 326.09C341.344 325.943 341.058 325.7 340.857 325.393C340.657 325.086 340.55 324.727 340.55 324.36C340.544 324.12 340.478 323.885 340.357 323.677C340.237 323.469 340.065 323.295 339.86 323.17C339.622 323.041 339.36 322.962 339.09 322.94C338.78 322.88 338.48 322.85 338.18 322.76Z" fill="white"/>
<path d="M374 377.69C374.3 377.6 374.61 377.56 374.91 377.5C375.174 377.444 375.448 377.447 375.711 377.509C375.974 377.572 376.22 377.692 376.431 377.862C376.642 378.031 376.812 378.246 376.929 378.489C377.047 378.733 377.109 379 377.11 379.27C377.107 379.512 377.165 379.75 377.279 379.963C377.393 380.176 377.558 380.358 377.76 380.49C377.986 380.634 378.243 380.72 378.51 380.74C378.81 380.8 379.12 380.84 379.42 380.92C379.12 381.01 378.81 381.05 378.51 381.11C378.174 381.173 377.827 381.138 377.51 381.01C377.171 380.866 376.881 380.625 376.679 380.317C376.476 380.01 376.368 379.649 376.37 379.28C376.368 379.04 376.304 378.805 376.183 378.598C376.062 378.391 375.888 378.219 375.68 378.1C375.448 377.964 375.188 377.886 374.92 377.87C374.58 377.81 374.27 377.77 374 377.69Z" fill="white"/>
<path d="M356.35 348.17C356.65 348.09 356.95 348.05 357.25 347.99C357.583 347.921 357.929 347.945 358.25 348.06C358.598 348.189 358.899 348.421 359.113 348.724C359.327 349.027 359.445 349.388 359.45 349.76C359.445 350.002 359.502 350.241 359.616 350.454C359.73 350.668 359.896 350.849 360.1 350.98C360.326 351.122 360.583 351.208 360.85 351.23C361.15 351.29 361.45 351.33 361.76 351.41C361.45 351.5 361.15 351.53 360.85 351.6C360.513 351.656 360.168 351.622 359.85 351.5C359.514 351.352 359.228 351.11 359.027 350.803C358.827 350.496 358.72 350.137 358.72 349.77C358.713 349.531 358.647 349.298 358.526 349.091C358.405 348.885 358.235 348.713 358.03 348.59C357.797 348.449 357.532 348.369 357.26 348.36C357 348.29 356.65 348.26 356.35 348.17Z" fill="white"/>
<path d="M323.739 353.54C324.049 353.45 324.349 353.41 324.649 353.35C324.914 353.294 325.187 353.297 325.451 353.359C325.714 353.422 325.959 353.543 326.17 353.712C326.381 353.882 326.551 354.096 326.669 354.339C326.786 354.583 326.848 354.85 326.849 355.12C326.847 355.362 326.905 355.6 327.018 355.813C327.132 356.026 327.297 356.208 327.499 356.34C327.725 356.484 327.983 356.57 328.249 356.59C328.559 356.65 328.859 356.69 329.159 356.77C328.859 356.849 328.556 356.912 328.249 356.96C327.913 357.023 327.566 356.988 327.249 356.86C326.91 356.716 326.621 356.475 326.418 356.167C326.215 355.86 326.108 355.499 326.109 355.13C326.108 354.891 326.044 354.657 325.925 354.45C325.806 354.244 325.635 354.071 325.429 353.95C325.193 353.816 324.93 353.737 324.659 353.72C324.349 353.66 324.049 353.62 323.739 353.54Z" fill="white"/>
<path d="M371.359 323.48C371.659 323.4 371.959 323.36 372.259 323.3C372.524 323.244 372.799 323.247 373.062 323.31C373.326 323.372 373.572 323.493 373.783 323.662C373.995 323.831 374.166 324.045 374.285 324.289C374.403 324.532 374.466 324.799 374.469 325.07C374.465 325.312 374.522 325.551 374.636 325.765C374.75 325.978 374.916 326.159 375.119 326.29C375.346 326.433 375.603 326.518 375.869 326.54C376.169 326.6 376.469 326.64 376.769 326.72C376.469 326.81 376.169 326.84 375.869 326.91C375.533 326.971 375.187 326.937 374.869 326.81C374.533 326.663 374.248 326.42 374.047 326.113C373.846 325.806 373.739 325.447 373.739 325.08C373.733 324.841 373.666 324.608 373.546 324.402C373.425 324.195 373.254 324.023 373.049 323.9C372.815 323.762 372.551 323.683 372.279 323.67C371.999 323.6 371.659 323.57 371.359 323.48Z" fill="white"/>
<path d="M413.05 363.89C413.35 363.81 413.66 363.77 413.96 363.71C414.293 363.637 414.64 363.661 414.96 363.78C415.307 363.91 415.607 364.142 415.819 364.445C416.032 364.749 416.147 365.11 416.15 365.48C416.149 365.721 416.208 365.959 416.321 366.172C416.435 366.385 416.599 366.566 416.8 366.7C417.03 366.835 417.285 366.92 417.55 366.95C417.86 367.01 418.16 367.05 418.46 367.13C418.16 367.22 417.86 367.25 417.55 367.32C417.284 367.369 417.01 367.358 416.749 367.289C416.488 367.219 416.246 367.092 416.04 366.916C415.834 366.741 415.67 366.522 415.559 366.275C415.448 366.029 415.394 365.76 415.4 365.49C415.398 365.25 415.334 365.015 415.212 364.808C415.091 364.601 414.918 364.429 414.71 364.31C414.479 364.171 414.219 364.089 413.95 364.07C413.66 364 413.35 364 413.05 363.89Z" fill="white"/>
<path d="M396.5 339.22C396.8 339.14 397.11 339.1 397.41 339.04C397.674 338.984 397.948 338.987 398.211 339.049C398.474 339.112 398.72 339.232 398.931 339.402C399.142 339.571 399.312 339.786 399.429 340.029C399.547 340.273 399.609 340.54 399.61 340.81C399.605 341.052 399.663 341.291 399.777 341.505C399.89 341.718 400.057 341.899 400.26 342.03C400.485 342.175 400.743 342.261 401.01 342.28C401.31 342.34 401.62 342.38 401.92 342.46C401.62 342.55 401.31 342.59 401.01 342.65C400.674 342.714 400.327 342.679 400.01 342.55C399.671 342.406 399.381 342.165 399.179 341.857C398.976 341.55 398.868 341.189 398.87 340.82C398.868 340.58 398.804 340.345 398.683 340.138C398.562 339.931 398.388 339.759 398.18 339.64C397.948 339.505 397.688 339.426 397.42 339.41C397.11 339.35 396.8 339.31 396.5 339.22Z" fill="white"/>
<path d="M431.68 375.17C431.99 375.09 432.29 375.05 432.59 374.99C432.854 374.933 433.128 374.937 433.391 374.999C433.654 375.062 433.9 375.182 434.111 375.352C434.321 375.521 434.492 375.736 434.609 375.979C434.727 376.223 434.788 376.489 434.79 376.76C434.787 377.001 434.845 377.24 434.959 377.453C435.072 377.666 435.238 377.847 435.44 377.98C435.665 378.123 435.923 378.209 436.19 378.23C436.5 378.29 436.8 378.33 437.1 378.41C436.8 378.488 436.496 378.552 436.19 378.6C435.854 378.663 435.507 378.628 435.19 378.5C434.851 378.357 434.562 378.115 434.361 377.807C434.159 377.499 434.055 377.138 434.06 376.77C434.053 376.531 433.987 376.298 433.866 376.091C433.745 375.885 433.575 375.713 433.37 375.59C433.134 375.456 432.87 375.377 432.6 375.36C432.29 375.3 432 375.26 431.68 375.17Z" fill="white"/>
<path d="M349 287.46C348.85 287.73 348.66 287.97 348.49 288.23C348.345 288.46 348.15 288.653 347.919 288.797C347.689 288.941 347.429 289.031 347.159 289.061C346.89 289.09 346.616 289.059 346.36 288.969C346.104 288.879 345.872 288.732 345.68 288.54C345.513 288.365 345.304 288.236 345.073 288.166C344.841 288.096 344.596 288.087 344.36 288.14C344.099 288.199 343.855 288.319 343.65 288.49C343.403 288.674 343.146 288.844 342.88 289C343.04 288.73 343.22 288.49 343.39 288.23C343.586 287.943 343.86 287.717 344.18 287.58C344.518 287.447 344.887 287.416 345.243 287.491C345.598 287.566 345.924 287.743 346.18 288C346.353 288.167 346.567 288.287 346.799 288.348C347.032 288.41 347.277 288.41 347.51 288.35C347.769 288.279 348.009 288.149 348.21 287.97C348.53 287.8 348.77 287.61 349 287.46Z" fill="white"/>
<path d="M336.93 267.21C336.78 267.48 336.59 267.72 336.42 267.98C336.274 268.21 336.079 268.403 335.849 268.547C335.619 268.691 335.359 268.781 335.089 268.811C334.819 268.84 334.546 268.809 334.29 268.719C334.034 268.629 333.801 268.482 333.61 268.29C333.443 268.114 333.234 267.985 333.003 267.915C332.771 267.845 332.525 267.836 332.29 267.89C332.028 267.949 331.785 268.069 331.58 268.24C331.332 268.424 331.075 268.594 330.81 268.75C330.97 268.48 331.15 268.24 331.32 267.98C331.516 267.693 331.79 267.467 332.11 267.33C332.448 267.197 332.817 267.166 333.172 267.241C333.528 267.316 333.854 267.493 334.11 267.75C334.282 267.918 334.496 268.038 334.729 268.1C334.962 268.161 335.207 268.161 335.44 268.1C335.699 268.029 335.939 267.899 336.14 267.72C336.42 267.55 336.66 267.36 336.93 267.21Z" fill="white"/>
<path d="M398 322.71C397.84 322.99 397.66 323.23 397.49 323.48C397.3 323.77 397.033 324.002 396.72 324.15C396.388 324.294 396.021 324.337 395.665 324.273C395.309 324.209 394.98 324.041 394.72 323.79C394.551 323.617 394.342 323.49 394.111 323.42C393.881 323.35 393.636 323.34 393.4 323.39C393.139 323.449 392.896 323.569 392.69 323.74C392.43 323.91 392.19 324.1 391.92 324.25C392.07 323.98 392.26 323.74 392.43 323.48C392.622 323.193 392.893 322.967 393.21 322.83C393.548 322.701 393.917 322.672 394.272 322.746C394.626 322.821 394.952 322.996 395.21 323.25C395.381 323.418 395.592 323.538 395.824 323.6C396.055 323.661 396.298 323.661 396.53 323.6C396.791 323.532 397.034 323.405 397.24 323.23C397.52 323.06 397.76 322.87 398 322.71Z" fill="white"/>
<path d="M367.46 257.08C367.31 257.35 367.12 257.59 366.95 257.85C366.763 258.137 366.5 258.365 366.19 258.51C365.852 258.663 365.477 258.711 365.111 258.649C364.746 258.586 364.408 258.416 364.14 258.16C363.972 257.986 363.764 257.857 363.533 257.785C363.302 257.713 363.057 257.701 362.82 257.75C362.559 257.811 362.316 257.931 362.11 258.1C361.85 258.27 361.61 258.46 361.34 258.62C361.49 258.34 361.68 258.1 361.85 257.84C362.044 257.553 362.319 257.33 362.64 257.2C362.978 257.067 363.347 257.036 363.703 257.111C364.058 257.186 364.384 257.363 364.64 257.62C364.815 257.795 365.032 257.922 365.27 257.988C365.508 258.055 365.76 258.059 366 258C366.258 257.925 366.497 257.796 366.7 257.62C367 257.42 367.19 257.23 367.46 257.08Z" fill="white"/>
<path d="M346.279 242.12C346.129 242.39 345.939 242.63 345.769 242.89C345.58 243.177 345.318 243.409 345.009 243.56C344.671 243.711 344.294 243.758 343.929 243.693C343.564 243.629 343.226 243.457 342.959 243.2C342.792 243.025 342.583 242.896 342.352 242.826C342.121 242.756 341.875 242.747 341.639 242.8C341.377 242.856 341.133 242.977 340.929 243.15C340.669 243.32 340.429 243.51 340.159 243.66C340.309 243.39 340.499 243.15 340.669 242.89C340.863 242.6 341.138 242.374 341.459 242.24C341.797 242.107 342.167 242.076 342.522 242.151C342.877 242.225 343.203 242.402 343.459 242.66C343.631 242.829 343.845 242.949 344.078 243.011C344.311 243.072 344.556 243.072 344.789 243.01C345.049 242.939 345.288 242.809 345.489 242.63C345.769 242.46 345.999 242.27 346.279 242.12Z" fill="white"/>
<path d="M366.269 276.12C366.359 276.42 366.389 276.73 366.459 277.03C366.521 277.364 366.497 277.708 366.389 278.03C366.258 278.376 366.025 278.674 365.722 278.886C365.419 279.098 365.059 279.214 364.689 279.22C364.448 279.217 364.209 279.274 363.996 279.388C363.782 279.502 363.601 279.667 363.469 279.87C363.324 280.095 363.238 280.353 363.219 280.62C363.149 280.92 363.119 281.23 363.029 281.53C362.949 281.23 362.909 280.92 362.849 280.62C362.781 280.284 362.816 279.936 362.949 279.62C363.092 279.28 363.333 278.99 363.641 278.787C363.949 278.584 364.311 278.477 364.679 278.48C364.919 278.477 365.154 278.412 365.361 278.291C365.568 278.17 365.74 277.998 365.859 277.79C365.99 277.557 366.069 277.297 366.089 277.03C366.149 276.73 366.189 276.42 366.269 276.12Z" fill="white"/>
<path d="M359.059 329.39C359.139 329.69 359.179 330 359.239 330.3C359.296 330.565 359.293 330.838 359.23 331.101C359.168 331.364 359.047 331.61 358.878 331.821C358.708 332.032 358.494 332.202 358.25 332.319C358.007 332.437 357.74 332.499 357.47 332.5C357.228 332.496 356.989 332.553 356.775 332.667C356.562 332.78 356.381 332.947 356.25 333.15C356.109 333.377 356.023 333.634 356 333.9C355.94 334.2 355.9 334.51 355.82 334.81C355.73 334.51 355.69 334.2 355.63 333.9C355.566 333.564 355.601 333.217 355.73 332.9C355.874 332.562 356.116 332.273 356.423 332.07C356.731 331.868 357.091 331.76 357.459 331.76C357.699 331.758 357.935 331.694 358.142 331.573C358.349 331.452 358.52 331.278 358.64 331.07C358.775 330.839 358.854 330.578 358.869 330.31C358.929 330 358.999 329.69 359.059 329.39Z" fill="white"/>
<path d="M428.999 354.07C429.089 354.37 429.129 354.67 429.189 354.97C429.246 355.235 429.242 355.509 429.18 355.773C429.117 356.036 428.997 356.282 428.828 356.494C428.658 356.705 428.444 356.877 428.2 356.995C427.957 357.114 427.69 357.177 427.419 357.18C427.177 357.175 426.938 357.233 426.725 357.346C426.511 357.46 426.33 357.627 426.199 357.83C426.052 358.054 425.966 358.312 425.949 358.58C425.889 358.88 425.849 359.18 425.769 359.48C425.679 359.18 425.639 358.88 425.579 358.58C425.518 358.244 425.553 357.897 425.679 357.58C425.826 357.243 426.068 356.957 426.375 356.756C426.683 356.555 427.042 356.449 427.409 356.45C427.648 356.443 427.881 356.377 428.088 356.256C428.294 356.136 428.466 355.965 428.589 355.76C428.723 355.524 428.802 355.261 428.819 354.99C428.889 354.67 428.929 354.37 428.999 354.07Z" fill="white"/>
<path d="M396.6 283.5C396.68 283.8 396.72 284.1 396.78 284.41C396.85 284.743 396.826 285.09 396.71 285.41C396.578 285.757 396.346 286.056 396.043 286.27C395.74 286.484 395.381 286.602 395.01 286.61C394.768 286.605 394.529 286.663 394.315 286.777C394.102 286.89 393.921 287.057 393.79 287.26C393.649 287.487 393.564 287.744 393.54 288.01C393.48 288.31 393.44 288.61 393.36 288.92C393.27 288.61 393.24 288.31 393.17 288.01C393.121 287.744 393.132 287.471 393.201 287.209C393.271 286.948 393.398 286.706 393.574 286.5C393.749 286.294 393.968 286.13 394.215 286.019C394.461 285.908 394.73 285.854 395 285.86C395.239 285.856 395.474 285.791 395.681 285.67C395.887 285.549 396.059 285.377 396.18 285.17C396.32 284.94 396.399 284.679 396.41 284.41C396.48 284.1 396.51 283.8 396.6 283.5Z" fill="white"/>
<path d="M396.6 369C396.68 369.3 396.72 369.6 396.78 369.9C396.836 370.165 396.833 370.439 396.77 370.703C396.708 370.966 396.588 371.213 396.418 371.424C396.249 371.636 396.035 371.807 395.791 371.925C395.548 372.044 395.281 372.107 395.01 372.11C394.768 372.105 394.529 372.163 394.316 372.277C394.102 372.39 393.921 372.557 393.79 372.76C393.647 372.986 393.562 373.244 393.54 373.51C393.48 373.81 393.44 374.11 393.36 374.41C393.27 374.11 393.24 373.81 393.17 373.51C393.113 373.174 393.148 372.828 393.27 372.51C393.418 372.174 393.66 371.888 393.967 371.688C394.274 371.487 394.633 371.38 395 371.38C395.239 371.374 395.472 371.307 395.678 371.186C395.885 371.066 396.057 370.895 396.18 370.69C396.321 370.457 396.401 370.192 396.41 369.92C396.48 369.63 396.51 369.33 396.6 369Z" fill="white"/>
<path d="M413.05 320.05C413.14 320.35 413.17 320.66 413.23 320.96C413.29 321.224 413.29 321.498 413.229 321.762C413.169 322.026 413.049 322.273 412.88 322.484C412.711 322.696 412.496 322.866 412.252 322.983C412.008 323.1 411.741 323.161 411.47 323.16C411.228 323.156 410.989 323.214 410.776 323.328C410.563 323.441 410.382 323.607 410.25 323.81C410.105 324.035 410.019 324.293 410 324.56C409.93 324.86 409.9 325.17 409.81 325.47C409.73 325.17 409.69 324.86 409.63 324.56C409.562 324.224 409.596 323.875 409.73 323.56C409.872 323.221 410.111 322.932 410.417 322.729C410.723 322.527 411.083 322.419 411.45 322.42C411.691 322.418 411.927 322.353 412.136 322.232C412.345 322.111 412.518 321.938 412.64 321.73C412.771 321.496 412.849 321.237 412.87 320.97C412.93 320.66 413 320.35 413.05 320.05Z" fill="white"/>
<path d="M329.69 331.3C329.78 331.6 329.81 331.9 329.87 332.2C329.93 332.464 329.929 332.739 329.869 333.003C329.808 333.268 329.689 333.515 329.52 333.727C329.351 333.94 329.137 334.111 328.893 334.229C328.649 334.347 328.381 334.409 328.11 334.41C327.868 334.404 327.628 334.461 327.415 334.575C327.201 334.689 327.02 334.856 326.89 335.06C326.743 335.284 326.657 335.542 326.64 335.81C326.57 336.11 326.54 336.41 326.45 336.71C326.37 336.41 326.33 336.11 326.27 335.81C326.204 335.474 326.239 335.126 326.37 334.81C326.513 334.473 326.753 334.186 327.059 333.985C327.365 333.784 327.724 333.678 328.09 333.68C328.33 333.674 328.565 333.608 328.773 333.487C328.981 333.367 329.155 333.196 329.28 332.99C329.412 332.753 329.491 332.49 329.51 332.22C329.57 331.9 329.61 331.6 329.69 331.3Z" fill="white"/>
<path d="M331.31 283.5C331.385 283.8 331.445 284.104 331.49 284.41C331.564 284.742 331.543 285.089 331.43 285.41C331.298 285.757 331.066 286.056 330.763 286.27C330.461 286.484 330.101 286.602 329.73 286.61C329.488 286.604 329.249 286.661 329.035 286.775C328.821 286.889 328.64 287.056 328.51 287.26C328.365 287.485 328.279 287.743 328.26 288.01C328.19 288.31 328.16 288.61 328.07 288.92C327.99 288.61 327.95 288.31 327.89 288.01C327.823 287.675 327.854 287.328 327.98 287.01C328.125 286.671 328.366 286.383 328.674 286.18C328.981 285.978 329.342 285.87 329.71 285.87C329.951 285.866 330.186 285.801 330.395 285.68C330.603 285.559 330.777 285.387 330.9 285.18C331.031 284.946 331.11 284.687 331.13 284.42C331.19 284.1 331.23 283.8 331.31 283.5Z" fill="white"/>
<path d="M348.749 252.43C348.829 252.73 348.869 253.03 348.929 253.34C349 253.674 348.975 254.02 348.859 254.34C348.728 254.687 348.496 254.986 348.193 255.2C347.89 255.414 347.53 255.532 347.159 255.54C346.918 255.536 346.679 255.593 346.465 255.707C346.252 255.82 346.071 255.987 345.939 256.19C345.799 256.417 345.713 256.674 345.689 256.94C345.629 257.24 345.589 257.54 345.509 257.85C345.419 257.54 345.389 257.24 345.319 256.94C345.258 256.604 345.293 256.258 345.419 255.94C345.567 255.604 345.809 255.318 346.116 255.118C346.424 254.917 346.783 254.81 347.149 254.81C347.389 254.807 347.623 254.741 347.83 254.62C348.037 254.499 348.209 254.327 348.329 254.12C348.469 253.89 348.548 253.629 348.559 253.36C348.629 253 348.659 252.73 348.749 252.43Z" fill="white"/>
<path d="M344.07 300.46C344.15 300.77 344.19 301.07 344.25 301.37C344.306 301.635 344.303 301.909 344.24 302.173C344.178 302.436 344.057 302.683 343.888 302.894C343.719 303.106 343.505 303.277 343.261 303.395C343.017 303.514 342.751 303.577 342.48 303.58C342.238 303.575 341.999 303.633 341.785 303.746C341.572 303.86 341.391 304.027 341.26 304.23C341.117 304.456 341.031 304.713 341.01 304.98C340.95 305.28 340.91 305.58 340.83 305.88C340.74 305.58 340.7 305.28 340.64 304.98C340.579 304.644 340.613 304.297 340.74 303.98C340.887 303.644 341.129 303.358 341.437 303.158C341.744 302.957 342.103 302.85 342.47 302.85C342.709 302.844 342.942 302.777 343.148 302.656C343.355 302.536 343.527 302.365 343.65 302.16C343.784 301.924 343.862 301.661 343.88 301.39C343.94 301.07 344 300.77 344.07 300.46Z" fill="white"/>
<path d="M386.099 306.92C386.179 307.22 386.219 307.53 386.279 307.83C386.336 308.094 386.332 308.368 386.27 308.631C386.207 308.894 386.087 309.14 385.917 309.351C385.748 309.562 385.533 309.732 385.29 309.849C385.046 309.967 384.78 310.028 384.509 310.03C384.268 310.027 384.029 310.085 383.816 310.199C383.603 310.313 383.422 310.478 383.289 310.68C383.15 310.908 383.064 311.164 383.039 311.43C382.979 311.73 382.939 312.04 382.859 312.34C382.769 312.04 382.739 311.73 382.669 311.43C382.606 311.094 382.641 310.747 382.769 310.43C382.914 310.091 383.155 309.803 383.463 309.6C383.771 309.397 384.131 309.29 384.499 309.29C384.739 309.288 384.974 309.224 385.181 309.103C385.388 308.982 385.56 308.808 385.679 308.6C385.819 308.37 385.898 308.109 385.909 307.84C385.999 307.53 385.999 307.22 386.099 306.92Z" fill="white"/>
<path d="M347.25 360.86C347.33 361.17 347.37 361.47 347.43 361.77C347.49 362.034 347.49 362.309 347.429 362.573C347.369 362.838 347.25 363.085 347.081 363.297C346.912 363.51 346.697 363.681 346.453 363.799C346.209 363.917 345.941 363.979 345.67 363.98C345.428 363.972 345.188 364.028 344.974 364.142C344.76 364.256 344.579 364.425 344.45 364.63C344.306 364.852 344.217 365.106 344.19 365.37C344.145 365.676 344.085 365.98 344.01 366.28C343.93 365.98 343.89 365.68 343.83 365.37C343.763 365.035 343.795 364.688 343.92 364.37C344.064 364.032 344.306 363.744 344.614 363.543C344.922 363.341 345.282 363.236 345.65 363.24C345.89 363.234 346.125 363.168 346.333 363.047C346.541 362.927 346.716 362.756 346.84 362.55C346.97 362.312 347.048 362.05 347.07 361.78C347.13 361.47 347.17 361.17 347.25 360.86Z" fill="white"/>
<path d="M378.89 291.67C379.05 291.4 379.24 291.16 379.41 290.9C379.594 290.611 379.858 290.382 380.17 290.24C380.501 290.095 380.867 290.052 381.222 290.114C381.578 290.176 381.907 290.342 382.17 290.59C382.339 290.764 382.55 290.893 382.782 290.965C383.015 291.036 383.261 291.048 383.5 291C383.757 290.939 383.997 290.819 384.2 290.65C384.46 290.47 384.7 290.29 384.98 290.13C384.82 290.41 384.63 290.65 384.46 290.91C384.267 291.194 383.996 291.416 383.68 291.55C383.341 291.68 382.972 291.71 382.618 291.635C382.263 291.561 381.937 291.385 381.68 291.13C381.507 290.965 381.295 290.847 381.064 290.786C380.834 290.725 380.591 290.723 380.36 290.78C380.102 290.855 379.863 290.984 379.66 291.16C379.41 291.33 379.17 291.52 378.89 291.67Z" fill="white"/>
<path d="M354.38 313.88C354.53 313.61 354.72 313.37 354.89 313.11C355.035 312.881 355.23 312.687 355.461 312.543C355.691 312.399 355.951 312.309 356.22 312.279C356.49 312.25 356.763 312.281 357.019 312.371C357.276 312.461 357.508 312.608 357.7 312.8C357.866 312.976 358.075 313.105 358.307 313.175C358.538 313.245 358.784 313.254 359.02 313.2C359.281 313.141 359.524 313.021 359.73 312.85C359.977 312.666 360.234 312.496 360.5 312.34C360.34 312.61 360.16 312.85 359.99 313.11C359.837 313.334 359.636 313.521 359.401 313.657C359.167 313.793 358.905 313.876 358.635 313.898C358.364 313.92 358.093 313.881 357.839 313.785C357.586 313.688 357.357 313.536 357.17 313.34C356.999 313.173 356.787 313.053 356.556 312.992C356.325 312.93 356.081 312.93 355.85 312.99C355.592 313.065 355.353 313.194 355.15 313.37C354.89 313.54 354.65 313.73 354.38 313.88Z" fill="white"/>
<path d="M337.76 346.6C337.92 346.32 338.11 346.08 338.28 345.83C338.425 345.601 338.62 345.407 338.85 345.263C339.081 345.12 339.34 345.029 339.61 345C339.88 344.97 340.153 345.001 340.409 345.091C340.665 345.181 340.898 345.328 341.09 345.52C341.258 345.693 341.467 345.821 341.698 345.891C341.929 345.961 342.174 345.971 342.41 345.92C342.671 345.862 342.914 345.742 343.12 345.57C343.367 345.386 343.624 345.216 343.89 345.06C343.73 345.33 343.55 345.57 343.38 345.83C343.228 346.054 343.028 346.241 342.794 346.377C342.561 346.513 342.299 346.595 342.03 346.618C341.76 346.64 341.489 346.601 341.237 346.505C340.984 346.408 340.756 346.256 340.57 346.06C340.397 345.892 340.184 345.772 339.951 345.71C339.718 345.649 339.473 345.649 339.24 345.71C338.981 345.777 338.741 345.904 338.54 346.08C338.28 346.26 338 346.44 337.76 346.6Z" fill="white"/>
<path d="M344.939 380.59C345.099 380.32 345.289 380.08 345.459 379.82C345.644 379.531 345.908 379.302 346.219 379.16C346.551 379.018 346.916 378.976 347.271 379.038C347.626 379.1 347.956 379.264 348.219 379.51C348.386 379.685 348.595 379.815 348.826 379.887C349.057 379.958 349.303 379.97 349.539 379.92C349.801 379.858 350.044 379.734 350.249 379.56C350.499 379.39 350.739 379.21 351.019 379.05C350.859 379.33 350.679 379.57 350.509 379.82C350.314 380.108 350.04 380.333 349.719 380.47C349.381 380.6 349.012 380.63 348.657 380.556C348.303 380.481 347.977 380.305 347.719 380.05C347.547 379.885 347.335 379.767 347.104 379.706C346.874 379.645 346.631 379.643 346.399 379.7C346.142 379.775 345.903 379.905 345.699 380.08C345.459 380.25 345.219 380.44 344.939 380.59Z" fill="white"/>
<path d="M377.09 343.23C377.24 342.96 377.43 342.72 377.6 342.46C377.787 342.174 378.05 341.945 378.36 341.8C378.698 341.648 379.073 341.599 379.438 341.662C379.804 341.724 380.142 341.894 380.41 342.15C380.577 342.325 380.786 342.455 381.017 342.527C381.248 342.598 381.493 342.61 381.73 342.56C381.989 342.497 382.232 342.378 382.44 342.21C382.69 342.04 382.93 341.85 383.21 341.69C383.05 341.97 382.87 342.21 382.7 342.47C382.506 342.757 382.231 342.98 381.91 343.11C381.572 343.243 381.202 343.274 380.847 343.199C380.492 343.125 380.166 342.948 379.91 342.69C379.735 342.525 379.522 342.407 379.289 342.346C379.057 342.285 378.813 342.283 378.58 342.34C378.322 342.415 378.083 342.545 377.88 342.72C377.6 342.89 377.36 343.08 377.09 343.23Z" fill="white"/>
<path d="M399.21 356.77C399.36 356.5 399.55 356.26 399.72 356C399.909 355.716 400.172 355.488 400.48 355.34C400.811 355.199 401.177 355.156 401.532 355.218C401.887 355.28 402.216 355.444 402.48 355.69C402.647 355.865 402.856 355.994 403.087 356.065C403.318 356.137 403.563 356.149 403.8 356.1C404.06 356.04 404.303 355.92 404.51 355.75C404.77 355.58 405.01 355.39 405.28 355.23C405.13 355.51 404.94 355.75 404.77 356.01C404.579 356.3 404.303 356.523 403.98 356.65C403.642 356.783 403.273 356.814 402.917 356.74C402.562 356.665 402.236 356.488 401.98 356.23C401.805 356.066 401.592 355.947 401.359 355.886C401.127 355.825 400.883 355.823 400.65 355.88C400.392 355.955 400.153 356.085 399.95 356.26C399.72 356.43 399.48 356.62 399.21 356.77Z" fill="white"/>
<path d="M362 367.05C362.15 366.78 362.34 366.54 362.51 366.28C362.694 365.991 362.958 365.762 363.27 365.62C363.608 365.467 363.983 365.419 364.348 365.482C364.714 365.544 365.052 365.714 365.32 365.97C365.487 366.145 365.696 366.275 365.927 366.346C366.158 366.418 366.403 366.43 366.64 366.38C366.902 366.317 367.145 366.194 367.35 366.02C367.6 365.85 367.84 365.67 368.12 365.51C367.96 365.79 367.78 366.03 367.61 366.28C367.417 366.57 367.142 366.796 366.82 366.93C366.482 367.063 366.113 367.094 365.757 367.019C365.402 366.945 365.076 366.768 364.82 366.51C364.645 366.345 364.432 366.227 364.199 366.166C363.967 366.105 363.723 366.103 363.49 366.16C363.232 366.235 362.993 366.364 362.79 366.54C362.51 366.71 362.27 366.9 362 367.05Z" fill="white"/>
<path d="M410 380.59C410.16 380.32 410.34 380.08 410.51 379.82C410.697 379.533 410.96 379.305 411.27 379.16C411.608 379.007 411.983 378.959 412.348 379.022C412.714 379.084 413.052 379.254 413.32 379.51C413.487 379.684 413.696 379.813 413.927 379.885C414.158 379.957 414.403 379.969 414.64 379.92C414.9 379.859 415.143 379.74 415.35 379.57C415.61 379.39 415.85 379.21 416.12 379.05C415.97 379.33 415.78 379.57 415.61 379.83C415.417 380.114 415.146 380.336 414.83 380.47C414.492 380.602 414.123 380.632 413.768 380.557C413.412 380.483 413.087 380.306 412.83 380.05C412.657 379.886 412.445 379.768 412.214 379.707C411.984 379.646 411.742 379.644 411.51 379.7C411.248 379.772 411.006 379.902 410.8 380.08C410.5 380.25 410.26 380.44 410 380.59Z" fill="white"/>
<path d="M415.409 344C415.559 343.72 415.749 343.48 415.919 343.22C416.109 342.936 416.371 342.708 416.679 342.56C417.017 342.407 417.392 342.359 417.758 342.422C418.123 342.484 418.461 342.654 418.729 342.91C418.897 343.084 419.105 343.213 419.336 343.285C419.567 343.357 419.812 343.369 420.049 343.32C420.31 343.259 420.553 343.139 420.759 342.97C421.019 342.8 421.259 342.61 421.529 342.45C421.379 342.73 421.189 342.97 421.019 343.23C420.828 343.519 420.552 343.743 420.229 343.87C419.891 344.003 419.522 344.034 419.166 343.959C418.811 343.884 418.485 343.707 418.229 343.45C418.056 343.286 417.844 343.168 417.614 343.107C417.383 343.046 417.141 343.043 416.909 343.1C416.647 343.172 416.405 343.302 416.199 343.48C415.919 343.66 415.679 343.85 415.409 344Z" fill="white"/>
<path d="M327.75 371.74C327.91 371.46 328.09 371.22 328.26 370.96C328.449 370.676 328.712 370.448 329.02 370.3C329.358 370.148 329.733 370.099 330.098 370.162C330.464 370.224 330.802 370.394 331.07 370.65C331.237 370.824 331.446 370.953 331.677 371.025C331.908 371.097 332.153 371.109 332.39 371.06C332.65 371 332.893 370.88 333.1 370.71C333.36 370.54 333.6 370.35 333.87 370.19C333.72 370.47 333.53 370.71 333.36 370.97C333.17 371.257 332.898 371.479 332.58 371.61C332.242 371.742 331.873 371.772 331.518 371.697C331.162 371.623 330.837 371.447 330.58 371.19C330.407 371.026 330.195 370.908 329.964 370.849C329.733 370.789 329.491 370.79 329.26 370.85C328.997 370.914 328.753 371.041 328.55 371.22C328.26 371.39 328 371.58 327.75 371.74Z" fill="white"/>
<path d="M325 314.65C325.15 314.38 325.34 314.14 325.51 313.88C325.699 313.593 325.961 313.361 326.27 313.21C326.609 313.059 326.985 313.012 327.35 313.076C327.715 313.141 328.053 313.312 328.32 313.57C328.487 313.745 328.696 313.874 328.927 313.944C329.159 314.014 329.404 314.023 329.64 313.97C329.903 313.918 330.148 313.797 330.35 313.62C330.61 313.45 330.85 313.26 331.12 313.11C330.964 313.376 330.794 313.633 330.61 313.88C330.418 314.167 330.147 314.393 329.83 314.53C329.492 314.662 329.123 314.692 328.768 314.617C328.412 314.543 328.087 314.366 327.83 314.11C327.658 313.944 327.447 313.824 327.216 313.763C326.985 313.702 326.742 313.701 326.51 313.76C326.248 313.832 326.006 313.962 325.8 314.14C325.52 314.31 325.28 314.5 325 314.65Z" fill="white"/>
<path d="M357.63 238.48C357.26 240.35 348.82 252.66 340.34 252.55C337.58 252.5 337.14 237.42 337.14 237.42L336.85 236.32L332.85 220.84L350.78 208.47L353.38 206.83C353.38 206.83 354.19 211.14 355.16 216.51C355.16 216.76 355.25 217.01 355.29 217.28C355.33 217.55 355.42 217.86 355.46 218.15C355.62 218.95 355.77 219.77 355.91 220.59C356.02 221.21 356.12 221.81 356.21 222.47C356.3 223.13 356.4 223.77 356.51 224.47C357.202 229.109 357.576 233.79 357.63 238.48Z" fill="#DD6A57"/>
<path d="M355.16 216.51C353.727 220.943 351.348 225.01 348.186 228.431C345.024 231.852 341.156 234.544 336.85 236.32L332.85 220.84L350.78 208.47L353.38 206.83C353.38 206.83 354.19 211.14 355.16 216.51Z" fill="#263238"/>
<path d="M310.869 197.85C310.129 225.91 326.869 229.52 332.869 229.67C338.359 229.81 357.079 229.59 360.719 201.76C364.359 173.93 351.539 164.76 338.999 163.76C326.459 162.76 311.609 169.79 310.869 197.85Z" fill="#DD6A57"/>
<path d="M315.13 189.36C315.79 189.25 316.37 189.05 317.01 188.88C317.693 188.797 318.331 188.495 318.83 188.02C318.957 187.84 319.021 187.622 319.012 187.402C319.003 187.181 318.922 186.969 318.78 186.8C318.447 186.51 318.042 186.313 317.608 186.23C317.174 186.148 316.726 186.182 316.31 186.33C315.424 186.498 314.632 186.99 314.09 187.71C313.976 187.882 313.914 188.083 313.912 188.289C313.91 188.494 313.967 188.697 314.077 188.871C314.187 189.045 314.344 189.184 314.531 189.271C314.718 189.357 314.926 189.388 315.13 189.36Z" fill="#263238"/>
<path d="M333.89 193.46C333.244 193.389 332.603 193.282 331.97 193.14C331.285 193.121 330.624 192.879 330.09 192.45C329.946 192.282 329.863 192.071 329.852 191.85C329.841 191.63 329.904 191.411 330.03 191.23C330.335 190.91 330.721 190.678 331.146 190.557C331.571 190.436 332.021 190.43 332.45 190.54C333.348 190.632 334.179 191.057 334.78 191.73C334.911 191.89 334.992 192.085 335.014 192.29C335.036 192.496 334.997 192.703 334.903 192.887C334.808 193.071 334.662 193.223 334.482 193.325C334.302 193.427 334.096 193.474 333.89 193.46Z" fill="#263238"/>
<path d="M319.269 198.49C319.269 198.42 319.129 198.59 319.129 198.67C319.319 200.57 319.219 202.78 317.539 203.53C317.479 203.53 317.539 203.65 317.539 203.64C319.639 203.2 319.749 200.26 319.269 198.49Z" fill="#263238"/>
<path d="M317.429 196.61C314.349 196.61 314.519 202.75 317.379 202.78C320.239 202.81 319.999 196.64 317.429 196.61Z" fill="#263238"/>
<path d="M316.159 197.06C315.679 197.4 315.219 198 314.629 198.06C314.039 198.12 313.439 197.47 312.989 196.84C312.989 196.78 312.899 196.84 312.899 196.91C312.899 198.09 313.329 199.31 314.459 199.5C315.589 199.69 316.229 198.65 316.459 197.5C316.529 197.25 316.349 196.92 316.159 197.06Z" fill="#263238"/>
<path d="M331.82 214.82C331.35 215.25 330.87 215.82 330.17 215.89C329.472 215.843 328.791 215.653 328.17 215.33C328.156 215.323 328.141 215.321 328.126 215.324C328.111 215.327 328.097 215.335 328.087 215.346C328.077 215.357 328.071 215.372 328.07 215.387C328.068 215.402 328.072 215.417 328.08 215.43C328.341 215.817 328.702 216.126 329.125 216.323C329.547 216.52 330.016 216.599 330.48 216.55C330.875 216.466 331.236 216.265 331.514 215.972C331.793 215.679 331.976 215.309 332.04 214.91C332 214.8 331.89 214.76 331.82 214.82Z" fill="#263238"/>
<path d="M322.259 207.15C322.259 207.15 322.039 210.01 322.109 211.35C324.728 211.206 327.355 211.435 329.909 212.03C330.509 212.19 330.469 211.7 329.789 211.34C327.764 210.285 325.469 209.86 323.199 210.12C323.079 209.75 323.629 205.72 323.419 205.72C322.386 205.872 321.377 206.161 320.419 206.58C320.719 200.58 321.979 194.74 322.189 188.79C322.192 188.747 322.179 188.703 322.153 188.669C322.126 188.634 322.088 188.61 322.045 188.602C322.002 188.593 321.958 188.6 321.92 188.622C321.882 188.644 321.853 188.679 321.839 188.72C320.079 194.79 319.579 201.65 319.109 207.81C319.049 208.57 321.739 207.41 322.259 207.15Z" fill="#263238"/>
<path d="M335.61 198.59C334.487 198.15 333.258 198.052 332.08 198.31C331.448 198.453 330.851 198.718 330.32 199.09C329.773 199.498 329.325 200.025 329.01 200.63L328.42 201.72L329.63 201.59C330.481 201.5 331.339 201.5 332.19 201.59C333.078 201.667 333.932 201.97 334.67 202.47C334.186 201.586 333.375 200.929 332.41 200.64C331.47 200.329 330.476 200.217 329.49 200.31L330.11 201.31C330.627 200.442 331.424 199.776 332.37 199.42C333.411 199.01 334.5 198.731 335.61 198.59Z" fill="#263238"/>
<path d="M332.139 203.56C331.234 203.348 330.363 203.011 329.549 202.56C329.359 202.44 328.629 201.89 328.669 201.73C328.773 201.265 328.934 200.815 329.149 200.39C328.813 200.768 328.558 201.21 328.399 201.69C328.455 201.954 328.568 202.203 328.731 202.419C328.893 202.635 329.101 202.813 329.339 202.94C330.199 203.397 331.167 203.611 332.139 203.56Z" fill="#263238"/>
<path d="M325.5 211.15C325.5 211.15 327.24 213.65 329.24 213.95C331.54 214.31 331.81 212.24 329.24 211.06C327.94 210.45 325.5 211.15 325.5 211.15Z" fill="#263238"/>
<path d="M329.23 214C328.358 213.819 327.557 213.392 326.92 212.77C327.4 212.06 328.5 211.27 330.97 212.6C331.33 213.44 330.69 214.18 329.23 214Z" fill="#FF99BA"/>
<path d="M360.549 202.43C355.929 203.01 354.389 193.34 354.389 193.34C354.389 193.34 344.969 193.82 341.199 180.42C341.667 184.468 343.308 188.292 345.919 191.42C345.919 191.42 329.209 190.42 321.539 176.89C321.539 176.89 324.679 183.84 327.419 186.23C327.419 186.23 320.349 184.63 316.679 179.13C316.679 179.13 314.159 187.3 312.029 189.63C312.029 189.63 311.299 160.52 338.389 162.3C338.389 162.3 355.309 162.6 362.019 175.66C368.729 188.72 360.549 202.43 360.549 202.43Z" fill="#263238"/>
<path d="M356.23 203.79C356.23 203.79 361.82 194.68 365.92 196.62C370.02 198.56 366.18 211.52 361.63 213.53C361.064 213.829 360.444 214.011 359.806 214.064C359.168 214.117 358.526 214.04 357.919 213.839C357.311 213.637 356.751 213.314 356.272 212.89C355.792 212.465 355.404 211.949 355.13 211.37L356.23 203.79Z" fill="#DD6A57"/>
<path d="M364.73 200.31C364.8 200.31 364.82 200.4 364.73 200.43C361.54 201.95 360.01 205.08 358.99 208.3C359.89 207.03 361.17 206.3 362.86 207.3C362.95 207.35 362.86 207.49 362.78 207.48C362.196 207.33 361.579 207.366 361.016 207.583C360.454 207.8 359.972 208.187 359.64 208.69C359.08 209.528 358.617 210.427 358.26 211.37C358.12 211.67 357.59 211.55 357.68 211.21C357.674 211.184 357.674 211.156 357.68 211.13C357.4 207 360.28 201 364.73 200.31Z" fill="#263238"/>
<path d="M359 212.07C359.014 212.329 359.105 212.578 359.261 212.785C359.417 212.992 359.63 213.148 359.875 213.234C360.12 213.32 360.385 213.331 360.636 213.266C360.887 213.201 361.113 213.063 361.286 212.869C361.458 212.676 361.569 212.435 361.605 212.178C361.641 211.921 361.6 211.66 361.487 211.426C361.373 211.193 361.194 210.998 360.97 210.867C360.746 210.736 360.489 210.674 360.23 210.69C360.058 210.699 359.89 210.742 359.735 210.816C359.58 210.89 359.441 210.995 359.327 211.123C359.212 211.251 359.124 211.401 359.068 211.564C359.012 211.726 358.989 211.898 359 212.07Z" fill="white"/>
<path d="M362.139 209.9C362.147 210.066 362.205 210.226 362.304 210.36C362.404 210.493 362.54 210.594 362.697 210.65C362.854 210.706 363.024 210.714 363.185 210.673C363.347 210.632 363.492 210.544 363.603 210.42C363.715 210.296 363.786 210.142 363.81 209.977C363.833 209.812 363.807 209.644 363.735 209.494C363.663 209.344 363.548 209.219 363.404 209.135C363.261 209.05 363.095 209.01 362.929 209.02C362.819 209.025 362.712 209.052 362.612 209.099C362.513 209.146 362.424 209.213 362.35 209.295C362.277 209.377 362.22 209.472 362.184 209.576C362.148 209.68 362.133 209.79 362.139 209.9Z" fill="white"/>
<path d="M271.14 264.475L256.617 267.85L267.064 312.812L281.587 309.438L271.14 264.475Z" fill="#EBEBEB"/>
<path d="M235.74 145.13C223.606 147.953 212.581 154.31 204.06 163.397C195.538 172.485 189.902 183.895 187.864 196.185C185.826 208.475 187.478 221.093 192.61 232.445C197.742 243.796 206.124 253.372 216.698 259.96C227.271 266.548 239.56 269.854 252.011 269.46C264.463 269.065 276.518 264.988 286.653 257.743C296.787 250.498 304.547 240.411 308.95 228.758C313.353 217.104 314.202 204.406 311.39 192.27C309.521 184.206 306.081 176.589 301.267 169.854C296.453 163.12 290.359 157.4 283.334 153.023C276.308 148.645 268.489 145.694 260.322 144.34C252.156 142.986 243.802 143.254 235.74 145.13ZM261.26 255C251.673 257.23 241.64 256.566 232.43 253.094C223.22 249.621 215.247 243.495 209.519 235.49C203.791 227.485 200.566 217.962 200.252 208.124C199.937 198.286 202.548 188.576 207.752 180.221C212.957 171.867 220.523 165.244 229.492 161.19C238.461 157.136 248.431 155.834 258.141 157.447C267.851 159.06 276.864 163.516 284.041 170.252C291.218 176.988 296.235 185.702 298.46 195.29C301.44 208.141 299.196 221.649 292.221 232.846C285.245 244.043 274.109 252.011 261.26 255Z" fill="#A6A6A6"/>
<path d="M276.097 296.714L266.356 298.977C262.983 299.761 260.884 303.13 261.668 306.503L274.126 360.125C274.91 363.498 278.28 365.597 281.653 364.813L291.393 362.55C294.766 361.767 296.865 358.397 296.082 355.024L283.623 301.402C282.84 298.029 279.47 295.93 276.097 296.714Z" fill="#263238"/>
<g opacity="0.3">
<path d="M298.46 195.27C300.683 204.854 300.014 214.883 296.537 224.087C293.061 233.292 286.934 241.258 278.93 246.981C270.926 252.703 261.406 255.923 251.572 256.235C241.738 256.546 232.032 253.935 223.682 248.731C215.332 243.527 208.713 235.964 204.661 226.998C200.609 218.032 199.306 208.066 200.918 198.36C202.53 188.654 206.983 179.644 213.715 172.469C220.448 165.294 229.156 160.276 238.74 158.05C245.105 156.57 251.7 156.359 258.147 157.429C264.593 158.499 270.766 160.828 276.312 164.285C281.858 167.742 286.669 172.257 290.469 177.574C294.269 182.89 296.985 188.904 298.46 195.27Z" fill="white"/>
<path d="M299.68 209.29C298.945 222.387 293.071 234.665 283.334 243.455C273.597 252.245 260.783 256.836 247.68 256.23L299.68 209.29Z" fill="#EBEBEB"/>
<path d="M276.79 164.6L205.56 228.89C203.788 225.359 202.445 221.63 201.56 217.78C200.524 213.369 200.106 208.836 200.32 204.31L252.91 156.84C261.403 157.34 269.626 160.012 276.79 164.6Z" fill="#EBEBEB"/>
<path d="M297.09 190.5L229.24 251.73C226.275 250.368 223.451 248.716 220.81 246.8L293.06 181.6C294.701 184.422 296.052 187.404 297.09 190.5Z" fill="#EBEBEB"/>
<path d="M282.26 168.66L209 234.76C208.66 234.26 208.32 233.76 208 233.25L280.84 167.52C281.34 167.88 281.81 168.25 282.26 168.66Z" fill="#EBEBEB"/>
<path d="M236.319 158.68L203.819 188C204.369 186.61 204.989 185.25 205.669 183.93L232.099 160.07C233.469 159.56 234.879 159.09 236.319 158.68Z" fill="#EBEBEB"/>
</g>
<path d="M214.68 215.13C214.675 215.064 214.675 214.997 214.68 214.93C214.5 213.93 214.81 215.88 214.68 215.23C214.55 214.58 214.48 213.69 214.42 212.92C214.19 210.205 214.19 207.475 214.42 204.76C214.42 204.37 214.49 203.99 214.52 203.61C214.52 203.49 214.41 204.51 214.52 203.7L214.61 203C214.73 202.1 214.88 201.2 215.06 200.31C215.439 198.348 215.95 196.414 216.59 194.52C216.74 194.07 216.91 193.62 217.07 193.17C217.28 192.56 216.79 193.84 217.12 193.04L217.45 192.25C217.88 191.25 218.35 190.25 218.85 189.25C219.35 188.25 220 187.18 220.63 186.19C220.93 185.73 221.23 185.28 221.54 184.83C222.07 184.06 221.29 185.14 221.7 184.6L222.29 183.82C224.111 181.531 226.147 179.421 228.37 177.52C228.37 177.52 228.83 177.15 228.49 177.43C228.15 177.71 228.67 177.28 228.73 177.23L229.73 176.44C230.4 175.94 231.08 175.44 231.78 175C233.246 174.02 234.761 173.116 236.32 172.29C236.738 172.028 237.099 171.685 237.385 171.283C237.67 170.88 237.873 170.426 237.983 169.945C238.092 169.464 238.106 168.966 238.023 168.479C237.94 167.993 237.763 167.528 237.5 167.11C237.237 166.693 236.895 166.331 236.492 166.045C236.09 165.76 235.635 165.557 235.154 165.447C234.673 165.338 234.175 165.324 233.689 165.407C233.203 165.49 232.738 165.668 232.32 165.93C222.44 171.2 214.32 179.52 210.24 190.01C207.478 197.065 206.3 204.64 206.79 212.2C206.89 213.879 207.104 215.55 207.43 217.2C207.715 218.152 208.365 218.952 209.238 219.426C210.111 219.901 211.136 220.01 212.09 219.73C213.028 219.421 213.812 218.766 214.282 217.898C214.753 217.03 214.874 216.014 214.62 215.06L214.68 215.13Z" fill="white"/>
<path d="M217.999 225.77C218.206 226.467 218.201 227.211 217.986 227.906C217.771 228.601 217.354 229.216 216.789 229.674C216.224 230.133 215.536 230.413 214.811 230.48C214.087 230.548 213.359 230.399 212.719 230.052C212.079 229.706 211.556 229.178 211.217 228.534C210.877 227.891 210.736 227.161 210.811 226.437C210.886 225.713 211.173 225.028 211.638 224.468C212.102 223.908 212.722 223.498 213.419 223.29C213.883 223.15 214.369 223.104 214.851 223.153C215.332 223.202 215.8 223.346 216.225 223.577C216.651 223.807 217.027 224.12 217.331 224.496C217.636 224.872 217.863 225.305 217.999 225.77Z" fill="white"/>
<path d="M377.129 257.3C386.129 289.84 390.449 322.51 385.469 339.36C382.289 350.1 374.619 357.36 369.739 359.76C358.329 365.4 320.479 357.4 295.819 352.44C289.759 351.22 304.049 302.39 310.139 304.98C319.139 308.79 346.689 313.93 347.449 314.18C349.079 314.74 352.449 279.43 354.829 258.73C358.119 229.89 371.939 238.51 377.129 257.3Z" fill="#DD6A57"/>
<path d="M248.43 295.68C245.75 300.05 249.23 304.05 249.23 304.05C246.945 305.193 245.134 307.1 244.11 309.44C242.5 313.64 248.38 318.01 248.38 318.01C246.258 319.687 244.693 321.967 243.89 324.55C242.75 328.73 248.06 333.98 248.06 333.98C246.963 336.598 246.846 339.523 247.73 342.22C250.38 349.33 261.73 351.66 268.93 353.22C276.13 354.78 298.01 352.42 302.23 352.4L312.58 306.27C312.58 306.27 282.27 290.12 273.58 289.5C266.19 289 251.44 290.78 248.43 295.68Z" fill="#DD6A57"/>
<path d="M249.71 303.38C257.71 302.07 265.57 303.17 273.52 303.82C273.557 303.82 273.593 303.835 273.619 303.861C273.645 303.887 273.66 303.923 273.66 303.96C273.66 303.997 273.645 304.033 273.619 304.059C273.593 304.085 273.557 304.1 273.52 304.1C265.61 303.36 257.66 304.19 249.75 303.77C249.704 303.765 249.661 303.745 249.628 303.713C249.596 303.68 249.575 303.637 249.57 303.591C249.566 303.545 249.577 303.499 249.602 303.461C249.628 303.422 249.666 303.394 249.71 303.38Z" fill="#263238"/>
<path d="M248.67 317.44C250.504 317.312 252.347 317.43 254.15 317.79C256.077 318.043 258 318.33 259.92 318.65C263.767 319.317 267.593 320.053 271.4 320.86C271.57 320.86 271.56 321.16 271.4 321.13C267.56 320.5 263.72 319.93 259.87 319.46C257.94 319.22 256.01 319.01 254.07 318.8C252.235 318.726 250.413 318.447 248.64 317.97C248.585 317.948 248.539 317.91 248.508 317.86C248.476 317.811 248.461 317.753 248.464 317.694C248.468 317.636 248.489 317.58 248.526 317.534C248.563 317.488 248.613 317.456 248.67 317.44Z" fill="#263238"/>
<path d="M248.22 334C249.78 333.73 251.6 334.29 253.14 334.58C254.89 334.91 256.63 335.22 258.38 335.53C261.88 336.15 265.38 336.76 268.9 337.26C269.07 337.26 269.05 337.56 268.9 337.53C265.32 337.05 261.74 336.61 258.17 336.1C256.42 335.85 254.66 335.58 252.91 335.31C251.42 335.08 249.54 334.96 248.21 334.18C248.193 334.171 248.18 334.157 248.171 334.141C248.162 334.124 248.157 334.105 248.158 334.087C248.159 334.068 248.166 334.05 248.177 334.034C248.188 334.019 248.203 334.007 248.22 334Z" fill="#263238"/>
<path d="M258.309 290.9C254.679 291.37 250.519 292.17 248.169 295.26C247.083 296.571 246.549 298.252 246.679 299.95C246.886 301.535 247.687 302.982 248.919 304C247.468 304.467 246.179 305.335 245.199 306.502C244.219 307.67 243.588 309.09 243.379 310.6C243.318 311.356 243.414 312.116 243.66 312.834C243.906 313.551 244.297 314.21 244.809 314.77C245.309 315.36 245.879 315.88 246.429 316.42C246.979 316.96 247.589 317.42 248.159 317.89C247.543 318.371 246.964 318.9 246.429 319.47C245.829 320.046 245.29 320.683 244.819 321.37C243.846 322.73 243.296 324.348 243.239 326.02C243.322 327.681 243.901 329.28 244.899 330.61C245.711 331.985 246.856 333.134 248.229 333.95C248.246 333.958 248.266 333.96 248.285 333.955C248.303 333.95 248.319 333.939 248.33 333.923C248.341 333.908 248.346 333.889 248.344 333.87C248.342 333.851 248.333 333.833 248.319 333.82C247.24 332.835 246.325 331.684 245.609 330.41C244.744 329.051 244.27 327.48 244.239 325.87C244.372 324.343 244.888 322.874 245.739 321.6C246.163 320.909 246.623 320.241 247.119 319.6C247.613 319.075 248.074 318.521 248.499 317.94C248.499 317.94 247.309 316.68 246.889 316.14C246.469 315.6 246.059 315.02 245.679 314.43C244.874 313.31 244.517 311.929 244.679 310.56C244.915 309.281 245.496 308.092 246.359 307.12C247.199 306.12 248.289 305.33 249.169 304.35C249.201 304.298 249.221 304.24 249.23 304.18C249.239 304.12 249.235 304.059 249.219 304C247.219 300.88 247.469 297.92 249.609 295.61C250.699 294.49 251.975 293.566 253.379 292.88C254.995 292.145 256.667 291.54 258.379 291.07C258.449 291.06 258.419 290.89 258.309 290.9Z" fill="#263238"/>
<path d="M324.609 358.09C322.479 357.43 320.229 357.09 318.049 356.61C315.869 356.13 313.669 355.68 311.469 355.24C309.269 354.8 306.979 354.36 304.739 353.94C302.499 353.52 300.409 353.05 298.229 352.79C296.125 352.586 294.003 352.633 291.909 352.93C289.796 353.17 287.676 353.34 285.549 353.44C281.265 353.647 276.971 353.553 272.699 353.16C267.866 352.711 263.08 351.858 258.389 350.61C258.289 350.61 258.259 350.73 258.389 350.76C266.521 353.475 275.046 354.826 283.619 354.76C285.739 354.76 287.869 354.63 289.979 354.42C292.088 354.12 294.211 353.94 296.339 353.88C298.59 354.029 300.824 354.363 303.019 354.88C305.229 355.29 307.429 355.71 309.639 356.1C312.139 356.54 314.639 356.99 317.149 357.38C319.659 357.77 322.149 358.33 324.609 358.51C324.789 358.47 324.799 358.14 324.609 358.09Z" fill="#263238"/>
<path d="M355.67 316.2C352.47 315.11 349.09 314.43 345.8 313.64C342.51 312.85 339.18 312.09 335.87 311.34C329.55 309.91 323.15 308.7 316.87 306.95C315.22 306.49 313.59 305.95 311.98 305.41C311.17 305.12 310.38 304.8 309.59 304.41C308.8 304.02 307.89 303.78 307.11 303.41C307.02 303.35 306.95 303.49 307.04 303.55C307.67 303.94 308.25 304.41 308.9 304.79C309.55 305.17 310.34 305.55 311.08 305.89C312.433 306.508 313.818 307.052 315.23 307.52C318.17 308.52 321.23 309.21 324.23 309.91C330.83 311.42 337.44 312.91 344.06 314.34C345.92 314.74 347.79 315.14 349.66 315.51C351.53 315.88 353.57 316.34 355.55 316.56C355.597 316.573 355.647 316.568 355.69 316.545C355.733 316.522 355.765 316.483 355.781 316.437C355.796 316.391 355.793 316.341 355.773 316.296C355.752 316.252 355.715 316.218 355.67 316.2Z" fill="#263238"/>
<path d="M345.26 304.1L391 310.32C391 310.32 382.64 262.77 373.75 247.02C364.98 231.48 355.3 241.75 351.61 260.55C347.47 281.39 345.26 304.1 345.26 304.1Z" fill="#37474F"/>
<path d="M387.57 303.43C386.29 303.13 384.98 302.94 383.7 302.66C382.42 302.38 381.19 302.19 379.93 301.99C377.36 301.59 374.78 301.23 372.2 300.88C367.12 300.18 362.05 299.41 356.95 298.88C354.05 298.56 351.16 298.13 348.26 297.88C348.238 297.88 348.218 297.888 348.203 297.903C348.188 297.918 348.18 297.939 348.18 297.96C348.18 297.981 348.188 298.001 348.203 298.016C348.218 298.031 348.238 298.04 348.26 298.04C353.31 299.22 358.46 300.1 363.58 300.93C368.7 301.76 373.74 302.54 378.84 303.1C380.27 303.25 381.7 303.44 383.14 303.51C384.58 303.58 386.09 303.71 387.56 303.74C387.601 303.741 387.641 303.726 387.671 303.698C387.701 303.67 387.718 303.631 387.72 303.59C387.721 303.549 387.706 303.509 387.678 303.479C387.65 303.449 387.611 303.431 387.57 303.43Z" fill="#263238"/>
<path d="M412.63 130.91C412.043 136.535 409.904 141.887 406.452 146.368C403 150.848 398.371 154.281 393.081 156.284C387.792 158.287 382.05 158.781 376.496 157.71C370.942 156.639 365.795 154.046 361.63 150.22L346.35 152.47L354 139.26C352.245 134.96 351.495 130.317 351.805 125.684C352.114 121.05 353.477 116.549 355.788 112.521C358.1 108.494 361.299 105.046 365.143 102.441C368.987 99.8358 373.375 98.1415 377.972 97.487C382.569 96.8325 387.255 97.235 391.674 98.6638C396.092 100.093 400.126 102.51 403.47 105.733C406.813 108.955 409.378 112.898 410.969 117.261C412.559 121.623 413.134 126.291 412.65 130.91H412.63Z" fill="white"/>
<path d="M412.63 130.91C412.044 136.539 409.912 141.897 406.47 146.39C404.779 148.651 402.756 150.644 400.47 152.3C395.926 155.71 390.533 157.806 384.88 158.36C383.47 158.492 382.053 158.518 380.64 158.44C379.223 158.409 377.812 158.262 376.42 158C370.789 156.968 365.556 154.389 361.31 150.55L361.67 150.66L346.42 153L345.31 153.17L345.87 152.17L353.47 138.94V139.46C351.249 133.995 350.639 128.01 351.71 122.21C352.781 116.41 355.489 111.037 359.515 106.726C363.541 102.416 368.716 99.3466 374.43 97.8819C380.143 96.4171 386.156 96.6177 391.76 98.4598C396.172 99.9591 400.193 102.426 403.53 105.68C406.859 108.921 409.408 112.876 410.985 117.247C412.561 121.618 413.124 126.29 412.63 130.91ZM412.63 130.91C413.111 126.315 412.533 121.671 410.938 117.335C409.343 113 406.775 109.087 403.431 105.9C400.087 102.712 396.057 100.334 391.649 98.9493C387.242 97.5641 382.576 97.2085 378.01 97.9098C373.477 98.5924 369.16 100.303 365.39 102.91C361.655 105.539 358.539 108.952 356.26 112.91C354.007 116.868 352.681 121.285 352.38 125.83C352.102 130.368 352.837 134.91 354.53 139.13L354.64 139.41L354.5 139.66L346.81 152.84L346.26 152.03L361.55 149.89H361.76L361.91 150.03C365.994 153.847 371.059 156.454 376.54 157.56C377.904 157.84 379.288 158.01 380.68 158.07C382.071 158.165 383.468 158.165 384.86 158.07C387.647 157.853 390.39 157.247 393.01 156.27C395.651 155.309 398.135 153.961 400.38 152.27C401.509 151.442 402.584 150.544 403.6 149.58C404.589 148.587 405.518 147.535 406.38 146.43C409.861 141.935 412.024 136.562 412.63 130.91Z" fill="#263238"/>
<path d="M367.329 142C367.31 141.594 367.374 141.189 367.516 140.809C367.659 140.428 367.877 140.081 368.157 139.787C368.438 139.494 368.775 139.26 369.148 139.101C369.522 138.941 369.923 138.859 370.329 138.86C371.162 138.86 371.961 139.191 372.55 139.779C373.139 140.368 373.469 141.167 373.469 142C373.469 142.832 373.139 143.631 372.55 144.22C371.961 144.809 371.162 145.14 370.329 145.14C369.923 145.14 369.522 145.058 369.148 144.899C368.775 144.739 368.438 144.506 368.157 144.212C367.877 143.919 367.659 143.571 367.516 143.191C367.374 142.811 367.31 142.405 367.329 142ZM368.599 134.76L367.889 110.45H372.749L371.999 134.73L368.599 134.76Z" fill="#1A8A8C"/>
<path d="M378.999 142C378.98 141.594 379.044 141.189 379.186 140.809C379.329 140.428 379.546 140.081 379.827 139.787C380.107 139.494 380.445 139.26 380.818 139.101C381.191 138.941 381.593 138.859 381.999 138.86C382.832 138.86 383.631 139.191 384.22 139.779C384.809 140.368 385.139 141.167 385.139 142C385.139 142.832 384.809 143.631 384.22 144.22C383.631 144.809 382.832 145.14 381.999 145.14C381.593 145.14 381.191 145.058 380.818 144.899C380.445 144.739 380.107 144.506 379.827 144.212C379.546 143.919 379.329 143.571 379.186 143.191C379.044 142.811 378.98 142.405 378.999 142ZM380.269 134.76L379.559 110.45H384.419L383.709 134.76H380.269Z" fill="#1A8A8C"/>
<path d="M390.629 142C390.61 141.594 390.674 141.189 390.816 140.809C390.958 140.428 391.176 140.081 391.457 139.787C391.737 139.494 392.074 139.26 392.448 139.101C392.821 138.941 393.223 138.859 393.629 138.86C394.462 138.86 395.261 139.191 395.85 139.779C396.438 140.368 396.769 141.167 396.769 142C396.769 142.832 396.438 143.631 395.85 144.22C395.261 144.809 394.462 145.14 393.629 145.14C393.223 145.14 392.821 145.058 392.448 144.899C392.074 144.739 391.737 144.506 391.457 144.212C391.176 143.919 390.958 143.571 390.816 143.191C390.674 142.811 390.61 142.405 390.629 142ZM391.899 134.76L391.189 110.45H396.049L395.339 134.76H391.899Z" fill="#1A8A8C"/>
</svg>
