<svg width="163" height="130" viewBox="0 0 163 130" fill="none" xmlns="http://www.w3.org/2000/svg">
<g clip-path="url(#clip0_691_3229)">
<path d="M24.7664 56.7334C33.7069 56.7334 40.9758 49.4645 40.9758 40.5239C40.9758 31.5834 33.7069 24.3145 24.7664 24.3145C15.8258 24.3145 8.55689 31.5834 8.55689 40.5239C8.55689 49.4645 15.8258 56.7334 24.7664 56.7334ZM138.233 56.7334C147.173 56.7334 154.442 49.4645 154.442 40.5239C154.442 31.5834 147.173 24.3145 138.233 24.3145C129.292 24.3145 122.023 31.5834 122.023 40.5239C122.023 49.4645 129.292 56.7334 138.233 56.7334ZM146.337 64.8382H130.128C125.67 64.8382 121.643 66.6364 118.705 69.549C128.912 75.1464 136.156 85.252 137.726 97.2571H154.442C158.925 97.2571 162.547 93.6353 162.547 89.1524V81.0476C162.547 72.1071 155.278 64.8382 146.337 64.8382ZM81.4995 64.8382C97.1771 64.8382 109.866 52.1492 109.866 36.4716C109.866 20.794 97.1771 8.10498 81.4995 8.10498C65.8219 8.10498 53.1329 20.794 53.1329 36.4716C53.1329 52.1492 65.8219 64.8382 81.4995 64.8382ZM100.951 72.9429H98.8487C93.5807 75.4756 87.73 76.9953 81.4995 76.9953C75.269 76.9953 69.4437 75.4756 64.1503 72.9429H62.0482C45.94 72.9429 32.8711 86.0118 32.8711 102.12V109.414C32.8711 116.126 38.3165 121.571 45.0282 121.571H117.971C124.683 121.571 130.128 116.126 130.128 109.414V102.12C130.128 86.0118 117.059 72.9429 100.951 72.9429ZM44.2937 69.549C41.3558 66.6364 37.3287 64.8382 32.8711 64.8382H16.6616C7.72109 64.8382 0.452148 72.1071 0.452148 81.0476V89.1524C0.452148 93.6353 4.07395 97.2571 8.55689 97.2571H25.2476C26.8432 85.252 34.0868 75.1464 44.2937 69.549Z" fill="#0E4D4F"/>
</g>
<defs>
<clipPath id="clip0_691_3229">
<rect width="162.095" height="129.676" fill="white" transform="translate(0.452148)"/>
</clipPath>
</defs>
</svg>
